<?xml version="1.0" encoding="UTF-8" standalone="no"?>
<!DOCTYPE svg PUBLIC "-//W3C//DTD SVG 1.1//EN"
 "http://www.w3.org/Graphics/SVG/1.1/DTD/svg11.dtd">
<!-- Generated by graphviz version 2.38.0 (20140413.2041)
 -->
<!-- Title: %3 Pages: 1 -->
<svg width="1131pt" height="548pt"
 viewBox="0.00 0.00 1131.35 548.00" xmlns="http://www.w3.org/2000/svg" xmlns:xlink="http://www.w3.org/1999/xlink">
<g id="graph0" class="graph" transform="scale(1 1) rotate(0) translate(4 544)">
<title>%3</title>
<polygon fill="white" stroke="none" points="-4,4 -4,-544 1127.35,-544 1127.35,4 -4,4"/>
<!-- [root] aws_instance.example -->
<g id="node1" class="node"><title>[root] aws_instance.example</title>
<polygon fill="none" stroke="black" points="488.805,-324 348.805,-324 348.805,-288 488.805,-288 488.805,-324"/>
<text text-anchor="middle" x="418.805" y="-302.3" font-family="Times New Roman,serif" font-size="14.00">aws_instance.example</text>
</g>
<!-- [root] aws_security_group.sg -->
<g id="node2" class="node"><title>[root] aws_security_group.sg</title>
<polygon fill="none" stroke="black" points="309.805,-252 163.805,-252 163.805,-216 309.805,-216 309.805,-252"/>
<text text-anchor="middle" x="236.805" y="-230.3" font-family="Times New Roman,serif" font-size="14.00">aws_security_group.sg</text>
</g>
<!-- [root] aws_instance.example&#45;&gt;[root] aws_security_group.sg -->
<g id="edge1" class="edge"><title>[root] aws_instance.example&#45;&gt;[root] aws_security_group.sg</title>
<path fill="none" stroke="black" d="M374.283,-287.876C349.071,-278.179 317.352,-265.98 290.736,-255.743"/>
<polygon fill="black" stroke="black" points="291.773,-252.391 281.183,-252.068 289.26,-258.925 291.773,-252.391"/>
</g>
<!-- [root] var.terraform_instance_count -->
<g id="node12" class="node"><title>[root] var.terraform_instance_count</title>
<polygon fill="none" stroke="black" points="503.305,-252 328.305,-252 328.305,-216 509.305,-216 509.305,-246 503.305,-252"/>
<polyline fill="none" stroke="black" points="503.305,-252 503.305,-246 "/>
<polyline fill="none" stroke="black" points="509.305,-246 503.305,-246 "/>
<text text-anchor="middle" x="418.805" y="-230.3" font-family="Times New Roman,serif" font-size="14.00">var.terraform_instance_count</text>
</g>
<!-- [root] aws_instance.example&#45;&gt;[root] var.terraform_instance_count -->
<g id="edge2" class="edge"><title>[root] aws_instance.example&#45;&gt;[root] var.terraform_instance_count</title>
<path fill="none" stroke="black" d="M418.805,-287.697C418.805,-279.983 418.805,-270.712 418.805,-262.112"/>
<polygon fill="black" stroke="black" points="422.305,-262.104 418.805,-252.104 415.305,-262.104 422.305,-262.104"/>
</g>
<!-- [root] var.terraform_instance_tags -->
<g id="node13" class="node"><title>[root] var.terraform_instance_tags</title>
<polygon fill="none" stroke="black" points="693.805,-252 527.805,-252 527.805,-216 699.805,-216 699.805,-246 693.805,-252"/>
<polyline fill="none" stroke="black" points="693.805,-252 693.805,-246 "/>
<polyline fill="none" stroke="black" points="699.805,-246 693.805,-246 "/>
<text text-anchor="middle" x="613.805" y="-230.3" font-family="Times New Roman,serif" font-size="14.00">var.terraform_instance_tags</text>
</g>
<!-- [root] aws_instance.example&#45;&gt;[root] var.terraform_instance_tags -->
<g id="edge3" class="edge"><title>[root] aws_instance.example&#45;&gt;[root] var.terraform_instance_tags</title>
<path fill="none" stroke="black" d="M466.507,-287.876C493.757,-278.094 528.102,-265.765 556.771,-255.474"/>
<polygon fill="black" stroke="black" points="558.028,-258.741 566.258,-252.068 555.663,-252.153 558.028,-258.741"/>
</g>
<!-- [root] data.aws_vpc.default -->
<g id="node3" class="node"><title>[root] data.aws_vpc.default</title>
<polygon fill="none" stroke="black" points="149.305,-180 14.305,-180 14.305,-144 149.305,-144 149.305,-180"/>
<text text-anchor="middle" x="81.805" y="-158.3" font-family="Times New Roman,serif" font-size="14.00">data.aws_vpc.default</text>
</g>
<!-- [root] aws_security_group.sg&#45;&gt;[root] data.aws_vpc.default -->
<g id="edge4" class="edge"><title>[root] aws_security_group.sg&#45;&gt;[root] data.aws_vpc.default</title>
<path fill="none" stroke="black" d="M198.888,-215.876C177.792,-206.349 151.349,-194.407 128.932,-184.283"/>
<polygon fill="black" stroke="black" points="130.153,-180.994 119.599,-180.068 127.272,-187.374 130.153,-180.994"/>
</g>
<!-- [root] var.terraform_aws_sg -->
<g id="node10" class="node"><title>[root] var.terraform_aws_sg</title>
<polygon fill="none" stroke="black" points="300.305,-180 167.305,-180 167.305,-144 306.305,-144 306.305,-174 300.305,-180"/>
<polyline fill="none" stroke="black" points="300.305,-180 300.305,-174 "/>
<polyline fill="none" stroke="black" points="306.305,-174 300.305,-174 "/>
<text text-anchor="middle" x="236.805" y="-158.3" font-family="Times New Roman,serif" font-size="14.00">var.terraform_aws_sg</text>
</g>
<!-- [root] aws_security_group.sg&#45;&gt;[root] var.terraform_aws_sg -->
<g id="edge5" class="edge"><title>[root] aws_security_group.sg&#45;&gt;[root] var.terraform_aws_sg</title>
<path fill="none" stroke="black" d="M236.805,-215.697C236.805,-207.983 236.805,-198.712 236.805,-190.112"/>
<polygon fill="black" stroke="black" points="240.305,-190.104 236.805,-180.104 233.305,-190.104 240.305,-190.104"/>
</g>
<!-- [root] var.terraform_aws_sg_cidr_blocks -->
<g id="node11" class="node"><title>[root] var.terraform_aws_sg_cidr_blocks</title>
<polygon fill="none" stroke="black" points="531.305,-180 324.305,-180 324.305,-144 537.305,-144 537.305,-174 531.305,-180"/>
<polyline fill="none" stroke="black" points="531.305,-180 531.305,-174 "/>
<polyline fill="none" stroke="black" points="537.305,-174 531.305,-174 "/>
<text text-anchor="middle" x="430.805" y="-158.3" font-family="Times New Roman,serif" font-size="14.00">var.terraform_aws_sg_cidr_blocks</text>
</g>
<!-- [root] aws_security_group.sg&#45;&gt;[root] var.terraform_aws_sg_cidr_blocks -->
<g id="edge6" class="edge"><title>[root] aws_security_group.sg&#45;&gt;[root] var.terraform_aws_sg_cidr_blocks</title>
<path fill="none" stroke="black" d="M284.263,-215.876C311.373,-206.094 345.541,-193.765 374.063,-183.474"/>
<polygon fill="black" stroke="black" points="375.283,-186.755 383.501,-180.068 372.907,-180.17 375.283,-186.755"/>
</g>
<!-- [root] provider.aws -->
<g id="node6" class="node"><title>[root] provider.aws</title>
<polygon fill="none" stroke="black" points="81.805,-108 0.19454,-90 81.805,-72 163.415,-90 81.805,-108"/>
<text text-anchor="middle" x="81.805" y="-86.3" font-family="Times New Roman,serif" font-size="14.00">provider.aws</text>
</g>
<!-- [root] data.aws_vpc.default&#45;&gt;[root] provider.aws -->
<g id="edge7" class="edge"><title>[root] data.aws_vpc.default&#45;&gt;[root] provider.aws</title>
<path fill="none" stroke="black" d="M81.805,-143.697C81.805,-135.983 81.805,-126.712 81.805,-118.112"/>
<polygon fill="black" stroke="black" points="85.3051,-118.104 81.805,-108.104 78.3051,-118.104 85.3051,-118.104"/>
</g>
<!-- [root] output.aws_instance_private_ip_dev -->
<g id="node4" class="node"><title>[root] output.aws_instance_private_ip_dev</title>
<polygon fill="none" stroke="black" points="287.305,-396 72.305,-396 72.305,-360 293.305,-360 293.305,-390 287.305,-396"/>
<polyline fill="none" stroke="black" points="287.305,-396 287.305,-390 "/>
<polyline fill="none" stroke="black" points="293.305,-390 287.305,-390 "/>
<text text-anchor="middle" x="182.805" y="-374.3" font-family="Times New Roman,serif" font-size="14.00">output.aws_instance_private_ip_dev</text>
</g>
<!-- [root] output.aws_instance_private_ip_dev&#45;&gt;[root] aws_instance.example -->
<g id="edge13" class="edge"><title>[root] output.aws_instance_private_ip_dev&#45;&gt;[root] aws_instance.example</title>
<path fill="none" stroke="black" d="M240.235,-359.966C273.783,-350.015 316.293,-337.406 351.419,-326.987"/>
<polygon fill="black" stroke="black" points="352.525,-330.31 361.117,-324.111 350.535,-323.599 352.525,-330.31"/>
</g>
<!-- [root] output.aws_instance_private_ip_qa -->
<g id="node5" class="node"><title>[root] output.aws_instance_private_ip_qa</title>
<polygon fill="none" stroke="black" points="520.305,-396 311.305,-396 311.305,-360 526.305,-360 526.305,-390 520.305,-396"/>
<polyline fill="none" stroke="black" points="520.305,-396 520.305,-390 "/>
<polyline fill="none" stroke="black" points="526.305,-390 520.305,-390 "/>
<text text-anchor="middle" x="418.805" y="-374.3" font-family="Times New Roman,serif" font-size="14.00">output.aws_instance_private_ip_qa</text>
</g>
<!-- [root] output.aws_instance_private_ip_qa&#45;&gt;[root] aws_instance.example -->
<g id="edge14" class="edge"><title>[root] output.aws_instance_private_ip_qa&#45;&gt;[root] aws_instance.example</title>
<path fill="none" stroke="black" d="M418.805,-359.697C418.805,-351.983 418.805,-342.712 418.805,-334.112"/>
<polygon fill="black" stroke="black" points="422.305,-334.104 418.805,-324.104 415.305,-334.104 422.305,-334.104"/>
</g>
<!-- [root] var.terraform_aws_region -->
<g id="node9" class="node"><title>[root] var.terraform_aws_region</title>
<polygon fill="none" stroke="black" points="156.305,-36 1.305,-36 1.305,-0 162.305,-0 162.305,-30 156.305,-36"/>
<polyline fill="none" stroke="black" points="156.305,-36 156.305,-30 "/>
<polyline fill="none" stroke="black" points="162.305,-30 156.305,-30 "/>
<text text-anchor="middle" x="81.805" y="-14.3" font-family="Times New Roman,serif" font-size="14.00">var.terraform_aws_region</text>
</g>
<!-- [root] provider.aws&#45;&gt;[root] var.terraform_aws_region -->
<g id="edge16" class="edge"><title>[root] provider.aws&#45;&gt;[root] var.terraform_aws_region</title>
<path fill="none" stroke="black" d="M81.805,-71.6966C81.805,-63.9827 81.805,-54.7125 81.805,-46.1124"/>
<polygon fill="black" stroke="black" points="85.3051,-46.1043 81.805,-36.1043 78.3051,-46.1044 85.3051,-46.1043"/>
</g>
<!-- [root] var.terraform_aws_ami -->
<g id="node7" class="node"><title>[root] var.terraform_aws_ami</title>
<polygon fill="none" stroke="black" points="684.805,-396 544.805,-396 544.805,-360 690.805,-360 690.805,-390 684.805,-396"/>
<polyline fill="none" stroke="black" points="684.805,-396 684.805,-390 "/>
<polyline fill="none" stroke="black" points="690.805,-390 684.805,-390 "/>
<text text-anchor="middle" x="617.805" y="-374.3" font-family="Times New Roman,serif" font-size="14.00">var.terraform_aws_ami</text>
</g>
<!-- [root] var.terraform_aws_instance -->
<g id="node8" class="node"><title>[root] var.terraform_aws_instance</title>
<polygon fill="none" stroke="black" points="874.305,-396 709.305,-396 709.305,-360 880.305,-360 880.305,-390 874.305,-396"/>
<polyline fill="none" stroke="black" points="874.305,-396 874.305,-390 "/>
<polyline fill="none" stroke="black" points="880.305,-390 874.305,-390 "/>
<text text-anchor="middle" x="794.805" y="-374.3" font-family="Times New Roman,serif" font-size="14.00">var.terraform_aws_instance</text>
</g>
<!-- [root] var.terraform_tags -->
<g id="node14" class="node"><title>[root] var.terraform_tags</title>
<polygon fill="none" stroke="black" points="1011.3,-396 898.305,-396 898.305,-360 1017.3,-360 1017.3,-390 1011.3,-396"/>
<polyline fill="none" stroke="black" points="1011.3,-396 1011.3,-390 "/>
<polyline fill="none" stroke="black" points="1017.3,-390 1011.3,-390 "/>
<text text-anchor="middle" x="957.805" y="-374.3" font-family="Times New Roman,serif" font-size="14.00">var.terraform_tags</text>
</g>
<!-- [root] meta.count&#45;boundary (EachMode fixup) -->
<g id="node15" class="node"><title>[root] meta.count&#45;boundary (EachMode fixup)</title>
<ellipse fill="none" stroke="black" cx="647.805" cy="-450" rx="180.868" ry="18"/>
<text text-anchor="middle" x="647.805" y="-446.3" font-family="Times New Roman,serif" font-size="14.00">[root] meta.count&#45;boundary (EachMode fixup)</text>
</g>
<!-- [root] meta.count&#45;boundary (EachMode fixup)&#45;&gt;[root] output.aws_instance_private_ip_dev -->
<g id="edge8" class="edge"><title>[root] meta.count&#45;boundary (EachMode fixup)&#45;&gt;[root] output.aws_instance_private_ip_dev</title>
<path fill="none" stroke="black" d="M552.583,-434.666C480.619,-423.832 381.318,-408.884 303.739,-397.205"/>
<polygon fill="black" stroke="black" points="303.835,-393.68 293.425,-395.652 302.793,-400.602 303.835,-393.68"/>
</g>
<!-- [root] meta.count&#45;boundary (EachMode fixup)&#45;&gt;[root] output.aws_instance_private_ip_qa -->
<g id="edge9" class="edge"><title>[root] meta.count&#45;boundary (EachMode fixup)&#45;&gt;[root] output.aws_instance_private_ip_qa</title>
<path fill="none" stroke="black" d="M594.692,-432.765C561.721,-422.686 519.109,-409.661 484.085,-398.955"/>
<polygon fill="black" stroke="black" points="485.009,-395.577 474.422,-396.001 482.962,-402.271 485.009,-395.577"/>
</g>
<!-- [root] meta.count&#45;boundary (EachMode fixup)&#45;&gt;[root] var.terraform_aws_ami -->
<g id="edge10" class="edge"><title>[root] meta.count&#45;boundary (EachMode fixup)&#45;&gt;[root] var.terraform_aws_ami</title>
<path fill="none" stroke="black" d="M640.389,-431.697C637.011,-423.813 632.935,-414.304 629.182,-405.546"/>
<polygon fill="black" stroke="black" points="632.292,-403.917 625.135,-396.104 625.858,-406.675 632.292,-403.917"/>
</g>
<!-- [root] meta.count&#45;boundary (EachMode fixup)&#45;&gt;[root] var.terraform_aws_instance -->
<g id="edge11" class="edge"><title>[root] meta.count&#45;boundary (EachMode fixup)&#45;&gt;[root] var.terraform_aws_instance</title>
<path fill="none" stroke="black" d="M683.015,-432.233C702.992,-422.72 728.205,-410.714 749.628,-400.513"/>
<polygon fill="black" stroke="black" points="751.337,-403.576 758.861,-396.116 748.328,-397.256 751.337,-403.576"/>
</g>
<!-- [root] meta.count&#45;boundary (EachMode fixup)&#45;&gt;[root] var.terraform_tags -->
<g id="edge12" class="edge"><title>[root] meta.count&#45;boundary (EachMode fixup)&#45;&gt;[root] var.terraform_tags</title>
<path fill="none" stroke="black" d="M721.269,-433.497C766.867,-423.738 826.913,-410.64 888.269,-396.332"/>
<polygon fill="black" stroke="black" points="889.186,-399.712 898.125,-394.025 887.59,-392.896 889.186,-399.712"/>
</g>
<!-- [root] provider.aws (close) -->
<g id="node16" class="node"><title>[root] provider.aws (close)</title>
<ellipse fill="none" stroke="black" cx="1014.8" cy="-450" rx="108.581" ry="18"/>
<text text-anchor="middle" x="1014.8" y="-446.3" font-family="Times New Roman,serif" font-size="14.00">[root] provider.aws (close)</text>
</g>
<!-- [root] provider.aws (close)&#45;&gt;[root] aws_instance.example -->
<g id="edge15" class="edge"><title>[root] provider.aws (close)&#45;&gt;[root] aws_instance.example</title>
<path fill="none" stroke="black" d="M1024.19,-431.88C1033.68,-411.989 1044.61,-379.424 1026.8,-360 991.842,-321.857 656.246,-311.065 499.159,-308.092"/>
<polygon fill="black" stroke="black" points="499.137,-304.591 489.075,-307.908 499.009,-311.59 499.137,-304.591"/>
</g>
<!-- [root] root -->
<g id="node17" class="node"><title>[root] root</title>
<ellipse fill="none" stroke="black" cx="830.805" cy="-522" rx="49.2915" ry="18"/>
<text text-anchor="middle" x="830.805" y="-518.3" font-family="Times New Roman,serif" font-size="14.00">[root] root</text>
</g>
<!-- [root] root&#45;&gt;[root] meta.count&#45;boundary (EachMode fixup) -->
<g id="edge17" class="edge"><title>[root] root&#45;&gt;[root] meta.count&#45;boundary (EachMode fixup)</title>
<path fill="none" stroke="black" d="M798.088,-508.485C770.976,-498.115 731.923,-483.176 700.423,-471.127"/>
<polygon fill="black" stroke="black" points="701.501,-467.792 690.911,-467.489 699.001,-474.33 701.501,-467.792"/>
</g>
<!-- [root] root&#45;&gt;[root] provider.aws (close) -->
<g id="edge18" class="edge"><title>[root] root&#45;&gt;[root] provider.aws (close)</title>
<path fill="none" stroke="black" d="M863.701,-508.485C891.523,-497.901 931.852,-482.558 963.849,-470.385"/>
<polygon fill="black" stroke="black" points="965.387,-473.545 973.489,-466.718 962.898,-467.003 965.387,-473.545"/>
</g>
</g>
</svg>
